HIERARCHY
ROOT hip
{
	OFFSET 0.000000 0.000000 0.000000 
	CHANNELS 6 Xposition Yposition Zposition Xrotation Zrotation Yrotation
	JOINT abdomen
	{
		OFFSET 0.000000 3.402643 0.000000 
		CHANNELS 3 Xrotation Zrotation Yrotation
		JOINT chest
		{
			OFFSET 0.000000 8.438565 -0.680529 
			CHANNELS 3 Xrotation Zrotation Yrotation
			JOINT neck
			{
				OFFSET 0.000000 10.207942 -0.272212 
				CHANNELS 3 Xrotation Zrotation Yrotation
				JOINT head
				{
					OFFSET 0.000000 3.130431 0.000000 
					CHANNELS 3 Xrotation Zrotation Yrotation
					End Site
					{
						OFFSET 0.000000 3.130435 0.000000 
					}
				}
			}
			JOINT lCollar
			{
				OFFSET 3.470700 6.669187 -0.816635 
				CHANNELS 3 Yrotation Zrotation Xrotation
				JOINT lShldr
				{
					OFFSET 3.198488 0.000000 0.000000 
					CHANNELS 3 Zrotation Yrotation Xrotation
					JOINT lForeArm
					{
						OFFSET 10.139888 0.000000 0.000000 
						CHANNELS 3 Yrotation Zrotation Xrotation
						JOINT lHand
						{
							OFFSET 8.370511 0.000000 0.000000 
							CHANNELS 3 Zrotation Yrotation Xrotation
							End Site
							{
								OFFSET 4.083176 0.000000 0.000000 
							}
						}
					}
				}
			}
			JOINT rCollar
			{
				OFFSET -3.470700 6.669187 -0.816635 
				CHANNELS 3 Yrotation Zrotation Xrotation
				JOINT rShldr
				{
					OFFSET -3.198488 0.000000 0.000000 
					CHANNELS 3 Zrotation Yrotation Xrotation
					JOINT rForeArm
					{
						OFFSET -10.139888 0.000000 0.000000 
						CHANNELS 3 Yrotation Zrotation Xrotation
						JOINT rHand
						{
							OFFSET -8.370511 0.000000 0.000000 
							CHANNELS 3 Zrotation Yrotation Xrotation
							End Site
							{
								OFFSET -4.083176 0.000000 0.000000 
							}
						}
					}
				}
			}
		}
	}
	JOINT lThigh
	{
		OFFSET 5.308129 -1.633274 1.361059 
		CHANNELS 3 Xrotation Zrotation Yrotation
		JOINT lShin
		{
			OFFSET -2.041588 -20.007561 0.000000 
			CHANNELS 3 Xrotation Zrotation Yrotation
			JOINT lFoot
			{
				OFFSET 0.000000 -19.190928 -1.224953 
				CHANNELS 3 Xrotation Yrotation Zrotation
				End Site
				{
					OFFSET 0.000000 -2.449906 4.627600 
				}
			}
		}
	}
	JOINT rThigh
	{
		OFFSET -5.308129 -1.633274 1.361059 
		CHANNELS 3 Xrotation Zrotation Yrotation
		JOINT rShin
		{
			OFFSET 2.041588 -20.007561 0.000000 
			CHANNELS 3 Xrotation Zrotation Yrotation
			JOINT rFoot
			{
				OFFSET 0.000000 -19.190928 -1.224953 
				CHANNELS 3 Xrotation Yrotation Zrotation
				End Site
				{
					OFFSET 0.000000 -2.449906 4.627600 
				}
			}
		}
	}
}
MOTION
Frames: 18
Frame Time: 0.033333
0.652860 42.232544 -2.345287 8.574302 1.786445 -1.562958 0.000000 0.000000 0.000000 9.441093 -7.213295 4.596723 13.827932 0.283203 -0.039062 -32.963097 1.043501 2.988852 -37.144371 29.996832 24.990538 -99.002213 -17.447325 -3.959612 -80.048767 -21.117384 110.319695 -62.530800 -31.934649 -3.115249 15.435449 -30.000000 25.000000 96.208115 39.085476 80.686592 17.027617 -46.371910 29.615570 32.336639 -0.560028 -80.473122 -32.894299 9.986065 17.129093 47.180794 2.320644 -1.528873 -1.141254 -1.682568 -34.069302 -38.054329 -15.585211 -2.024595 37.612095 1.601361 2.736545 10.269470 7.856586 25.173536 
0.652860 42.232544 -2.345287 8.574302 1.786445 -1.562958 0.000000 0.000000 0.000000 9.441093 -7.213295 4.596723 13.827932 0.283203 -0.039062 -32.963097 1.043501 2.988852 -37.144371 29.996832 24.990538 -99.002213 -17.447325 -3.959612 -80.048767 -21.117384 110.319695 -62.530800 -31.934649 -3.115249 15.435449 -30.000000 25.000000 96.208115 39.085476 80.686592 17.027617 -46.371910 29.615570 32.336639 -0.560028 -80.473122 -32.894299 9.986065 17.129093 47.180794 2.320644 -1.528873 -1.141254 -1.682568 -34.069302 -38.054329 -15.585211 -2.024595 37.612095 1.601361 2.736545 10.269470 7.856586 25.173536 
0.938840 42.475349 -3.172454 11.630880 1.588801 -3.516708 0.000000 0.000000 0.000000 8.818110 -6.774129 4.710664 21.200239 0.781249 -0.068353 -28.915718 0.634686 0.908364 -39.254848 30.000000 24.991835 -93.114967 -19.011791 -6.262743 -86.125069 -23.281803 115.264565 -63.606644 -46.061024 5.859737 18.255770 -30.000000 24.998789 97.708755 42.787350 80.498131 22.906652 -48.406483 39.005810 31.025742 0.751888 -80.302498 -36.741039 10.854734 16.670647 48.600838 2.437952 -1.566493 1.130306 -2.588009 -35.155930 -42.194298 -14.833181 -1.527176 37.011063 2.245964 2.816890 13.140568 8.584404 24.833584 
1.224803 42.718132 -3.999570 14.700389 1.497059 -5.470449 0.000000 0.000000 0.000000 8.187113 -6.335081 4.823762 28.573120 1.289062 -0.048816 -24.851604 0.380778 -1.181615 -41.364952 29.994701 24.988588 -87.130592 -20.353104 -8.742274 -92.095993 -25.928755 120.022423 -69.412491 -59.781345 18.806997 21.078695 -30.000000 24.994440 99.295410 46.496414 80.432907 29.417850 -49.740444 48.996887 29.720493 2.068720 -80.177727 -40.611835 11.697002 16.164503 49.991718 2.544677 -1.614322 3.369567 -3.521659 -36.211830 -46.312473 -14.051122 -1.069713 36.389168 2.899875 2.872353 16.022362 9.263556 24.440062 
1.544777 42.676735 -4.334980 14.771676 1.426608 -6.398383 0.000000 0.000000 0.000000 8.988378 -6.062351 4.850805 38.003635 1.884761 -0.126884 -20.177652 0.263415 -2.529315 -42.233288 29.999273 24.988976 -79.241043 -21.946823 -11.708718 -96.304321 -28.610094 124.503326 -56.112377 -70.070534 5.157805 22.682379 -30.000000 24.999176 97.009949 49.062504 79.132263 34.765121 -51.552311 58.320465 28.607597 4.872555 -79.955315 -40.468060 11.396403 16.097664 51.370705 2.498018 -1.681375 3.218679 -2.356674 -37.398254 -47.322857 -14.082027 -1.017419 38.090523 2.900015 3.058522 16.662701 8.933435 24.732670 
1.864732 42.635338 -4.670359 14.854970 1.356030 -7.326085 0.000000 0.000000 0.000000 9.779982 -5.779826 4.887671 47.436733 2.490230 -0.107320 -15.506109 0.263068 -3.876957 -43.108032 29.993925 24.988123 -71.195061 -23.148029 -14.907873 -100.380661 -31.586992 128.875656 -22.553314 -77.462906 -28.732218 24.289335 -30.000000 24.997351 94.507469 51.584728 77.603683 40.703407 -52.768257 68.211647 27.512020 7.663700 -79.779381 -40.314552 11.088844 16.038874 52.758255 2.456694 -1.767044 3.096876 -1.174059 -38.587357 -48.321762 -14.109021 -0.972861 39.781769 2.909965 3.229041 17.322720 8.607216 25.026611 
2.090969 42.345676 -4.684111 13.343817 0.892462 -6.612043 0.000000 0.000000 0.000000 11.440339 -5.146915 4.941404 54.560204 3.701158 -0.156555 -12.431013 0.262993 -4.111330 -43.559883 29.998102 24.986629 -64.504753 -25.498156 -17.167398 -93.043968 -30.112623 109.602089 -47.889374 -58.077351 -9.155090 24.687574 -30.000000 24.998848 89.732399 51.355907 75.644638 42.736938 -56.259953 72.418442 26.461624 10.794341 -79.500191 -38.678356 9.861514 15.993574 53.148567 3.278796 -1.585493 1.028134 -0.679227 -37.971703 -47.286793 -14.968279 -1.302518 42.138592 2.206937 3.315735 16.510130 8.963678 26.042004 
2.317200 42.056015 -4.697859 11.819144 0.446848 -5.888797 0.000000 0.000000 0.000000 13.090585 -4.513972 5.015194 61.695023 4.912107 -0.048649 -9.347632 0.282389 -4.345747 -44.014381 29.995398 24.994574 -57.594852 -27.590065 -19.759367 -85.589928 -30.803268 90.355232 -56.515144 -37.627438 -6.900323 25.098082 -30.000000 24.998503 84.997040 51.026699 73.732330 45.472446 -59.643303 77.279488 25.422041 13.932651 -79.268761 -37.047577 8.631109 15.916972 53.550785 4.089314 -1.412258 -1.074266 -0.193362 -37.337212 -46.233204 -15.827868 -1.651767 44.479866 1.513608 3.384633 15.692358 9.306190 27.055468 
2.440586 41.692127 -4.645338 11.065999 -0.194985 -3.320360 0.000000 0.000000 0.000000 13.782240 -3.394133 5.213846 65.360153 6.835938 -0.009696 -8.246140 0.994695 -3.037499 -44.505787 29.998556 24.987894 -54.164566 -31.596725 -20.918890 -83.612427 -28.795279 93.983810 -62.862160 -34.201607 -0.523096 24.819710 -26.691723 24.986929 78.904106 47.294571 71.857788 42.778721 -65.284599 71.992165 24.659378 14.353453 -79.377365 -37.023335 7.085589 15.484022 53.538952 5.571537 -1.093443 -1.682476 -1.544865 -36.175598 -45.358437 -17.655376 -2.286533 46.182198 1.044994 3.460812 14.599234 10.069064 28.909332 
2.563973 41.328247 -4.592814 10.274054 -0.790947 -0.752151 0.000000 0.000000 0.000000 14.480385 -2.284656 5.424165 69.037720 8.749967 0.158888 -7.120711 1.688701 -1.709681 -44.999458 29.994751 24.985355 -50.462898 -35.532654 -22.432539 -81.825874 -26.678650 97.455299 -68.488068 -30.261700 5.137101 24.551073 -23.382914 24.995209 73.378090 43.452122 70.654930 37.792332 -70.751404 64.465126 23.894594 14.763983 -79.505257 -37.003918 5.543334 15.040826 53.560101 7.036469 -0.762273 -2.252335 -2.897673 -35.045887 -44.437771 -19.450502 -2.957003 47.879852 0.566283 3.517219 13.472720 10.843345 30.820915 
2.696891 41.020412 -4.513556 10.021882 -1.121106 3.369641 0.000000 0.000000 0.000000 14.315703 -0.981412 5.723487 69.968079 10.312398 0.258546 -7.449324 2.646301 0.674913 -44.999458 29.994751 24.985355 -50.321712 -41.846519 -23.115179 -77.136162 -21.580944 103.080269 -73.041969 -24.529352 9.776881 23.381218 -18.387165 24.951344 67.902275 37.803223 69.530846 23.437223 -73.683487 42.008144 21.409267 12.428958 -80.039833 -37.082615 3.366759 14.410297 52.822147 7.662488 -0.602131 -2.185414 -4.901767 -32.945053 -43.226650 -22.604048 -4.089379 48.990070 0.878787 3.689163 12.585967 10.890553 33.430260 
2.829820 40.712597 -4.434296 9.734703 -1.423295 7.492518 0.000000 0.000000 0.000000 14.154923 0.320485 6.025515 70.908043 11.864981 0.379228 -7.746004 3.617885 3.062868 -44.999458 29.994751 24.985355 -50.036682 -48.150997 -23.900736 -73.147636 -16.106281 108.072853 -76.907555 -18.512224 13.728121 22.244879 -13.390418 24.992479 62.923351 32.091366 69.116661 4.360725 -74.508675 14.870119 18.969170 10.069420 -80.486076 -37.154243 1.190681 13.782853 52.137184 8.279188 -0.424100 -2.087851 -6.914775 -30.873631 -41.920460 -25.739874 -5.326547 50.108879 1.191463 3.869385 11.686011 10.868458 36.024357 
3.067895 40.598743 -4.343681 8.773474 -0.955627 11.886345 0.000000 0.000000 0.000000 14.673027 1.640456 6.291786 69.776230 11.445107 0.350503 -8.584489 3.812018 5.265623 -44.999458 29.994751 24.985355 -56.744617 -56.565319 -23.079924 -67.070999 -9.001823 108.326569 -61.420250 -16.530594 -17.192144 20.842297 -10.616705 24.959518 59.681591 28.480785 68.541367 -5.363788 -70.058182 -3.185386 14.882857 9.700824 -80.879738 -34.170036 -1.681829 13.626527 49.009254 8.208815 -0.322756 -2.938223 -9.417684 -28.676945 -39.236294 -28.972853 -6.669033 50.727940 1.660152 4.029177 11.296916 8.767180 36.619125 
3.305971 40.484940 -4.253088 7.848368 -0.412480 16.269941 0.000000 0.000000 0.000000 15.195342 2.968684 6.571862 68.658440 11.025204 0.338976 -9.424159 4.028228 7.459963 -44.999458 29.994751 24.985355 -65.749062 -64.833542 -19.708622 -61.105228 -1.910772 107.817749 -49.349102 -7.449859 -45.944416 19.454401 -7.850793 24.996464 56.581074 24.852377 68.210388 -9.718080 -64.986549 -15.986206 10.803171 9.297706 -81.249565 -31.178144 -4.531494 13.298810 45.893269 8.114024 -0.174632 -3.685057 -11.990309 -26.490183 -36.384327 -32.135914 -8.216647 51.335175 2.118975 4.180226 10.936951 6.646962 37.239666 
3.563295 40.675713 -4.312090 7.316843 0.396211 19.346237 0.000000 0.000000 0.000000 16.105907 4.266533 6.826194 65.955193 8.583965 0.118790 -10.867566 3.654308 9.140358 -44.999458 29.994751 24.985355 -88.515526 -68.123756 -7.881035 -59.450207 0.233585 95.988564 -34.996624 -11.956994 -49.858799 19.352444 -7.790139 24.999949 54.947914 24.017574 67.714737 -9.845593 -59.118191 -19.592533 11.189070 9.498547 -81.066490 -26.975174 -6.962628 13.345709 40.710983 7.991161 0.071752 -3.702247 -14.946517 -25.161989 -34.686123 -33.211025 -8.792925 51.403694 1.376934 4.039023 11.669212 2.595862 35.614700 
3.820597 40.866539 -4.371130 6.830846 1.218762 22.417566 0.000000 0.000000 0.000000 17.029079 5.562827 7.094338 63.283348 6.142578 0.020464 -12.312916 3.328464 10.829513 -44.999458 29.994751 24.985355 -114.948898 -69.156914 7.702420 -57.397358 1.982174 84.095276 -20.120117 -15.346262 -54.865059 19.249214 -7.732728 24.995621 53.333683 23.182619 67.244637 -9.326168 -53.268417 -22.658409 11.559486 9.692375 -80.887878 -22.771290 -9.393892 13.197582 35.525795 7.894204 0.336000 -3.666580 -17.918381 -23.813328 -32.968021 -34.247051 -9.398802 51.455093 0.617270 3.878150 12.258315 -1.514765 34.081200 
3.928967 41.310516 -4.656482 8.146736 1.113506 24.194464 0.000000 0.000000 0.000000 16.958853 6.451460 7.312634 59.107685 3.740211 -0.205278 -14.269083 3.863218 12.391988 -44.999458 29.994751 24.985355 -127.255669 -64.533028 13.507815 -55.873367 -5.280065 58.048328 -16.384790 -16.774509 -56.904675 20.389324 -8.680131 24.990091 51.522503 23.732410 66.368835 -7.706869 -49.097694 -19.895752 17.155350 7.094750 -80.277756 -21.754299 -10.623936 13.021712 31.323460 7.679136 0.519073 -1.355822 -20.238045 -23.874399 -34.754498 -33.201366 -8.778269 51.520035 -1.054544 3.520597 13.884757 -4.927953 32.034531 
4.037298 41.754501 -4.941847 9.468809 0.974543 25.970900 0.000000 0.000000 0.000000 16.884424 7.329479 7.532649 54.955009 1.337878 -0.253837 -16.211491 4.445563 13.949106 -44.999458 29.994751 24.985355 -136.800903 -59.555710 16.441105 -57.727268 -12.477679 31.683622 -12.575535 -18.070349 -59.050278 21.534372 -9.612855 24.997686 49.677670 24.270752 65.459892 -6.500556 -44.896847 -17.484819 22.694075 4.462100 -79.932007 -20.735109 -11.852989 12.814593 27.109385 7.475664 0.714897 0.966082 -22.543270 -23.842747 -36.520847 -32.135769 -8.222320 51.594479 -2.743635 3.142404 15.370682 -8.385530 30.074053 
